<svg width="48" height="48" viewBox="0 0 48 48" fill="none" xmlns="http://www.w3.org/2000/svg">
<g clip-path="url(#clip0_3333_11587)">
<g clip-path="url(#clip1_3333_11587)">
<path d="M8 8H40V40H8V8Z" fill="#0B7D77"/>
<path d="M20 29.5598L14.44 23.9998L12.5466 25.8798L20 33.3331L36 17.3331L34.12 15.4531L20 29.5598Z" fill="white"/>
</g>
<path d="M38 10V38H10V10H38ZM38 6H10C7.8 6 6 7.8 6 10V38C6 40.2 7.8 42 10 42H38C40.2 42 42 40.2 42 38V10C42 7.8 40.2 6 38 6Z" fill="#0B7D77"/>
</g>
<defs>
<clipPath id="clip0_3333_11587">
<rect width="48" height="48" fill="white"/>
</clipPath>
<clipPath id="clip1_3333_11587">
<rect width="32" height="32" fill="white" transform="translate(8 8)"/>
</clipPath>
</defs>
</svg>
