<svg width="24" height="24" viewBox="0 0 24 24" fill="none" xmlns="http://www.w3.org/2000/svg">
<g filter="url(#filter0_d_3275_510)">
<path d="M12 4L4 12L9.22 17.22L12 20L20 12L12 4ZM10 15H9V14H10V15ZM10 10H9V9H10V10ZM15 15H14V14H15V15ZM14 9H15V10H14V9Z" fill="white"/>
<path d="M18.5502 11.9799L15.9902 9.16992V10.9999H11.9902H7.98016V9.16992L5.41016 11.9799L7.98016 14.7899V12.9799H11.9902H15.9902V14.7899L18.5502 11.9799Z" fill="black"/>
<path d="M12.9699 11.9899H12.9799V7.98992H14.7899L11.9899 5.41992L9.17992 7.98992H10.9899V11.9899V15.9899H9.16992L11.9699 18.5599L14.7799 15.9899H12.9699V11.9899Z" fill="black"/>
</g>
<defs>
<filter id="filter0_d_3275_510" x="2.2" y="3.2" width="19.6" height="19.6" filterUnits="userSpaceOnUse" color-interpolation-filters="sRGB">
<feFlood flood-opacity="0" result="BackgroundImageFix"/>
<feColorMatrix in="SourceAlpha" type="matrix" values="0 0 0 0 0 0 0 0 0 0 0 0 0 0 0 0 0 0 127 0" result="hardAlpha"/>
<feOffset dy="1"/>
<feGaussianBlur stdDeviation="0.9"/>
<feColorMatrix type="matrix" values="0 0 0 0 0 0 0 0 0 0 0 0 0 0 0 0 0 0 0.65 0"/>
<feBlend mode="normal" in2="BackgroundImageFix" result="effect1_dropShadow_3275_510"/>
<feBlend mode="normal" in="SourceGraphic" in2="effect1_dropShadow_3275_510" result="shape"/>
</filter>
</defs>
</svg>
