<svg width="24" height="24" viewBox="0 0 24 24" fill="none" xmlns="http://www.w3.org/2000/svg">
<g filter="url(#filter0_d_3275_508)">
<path d="M8.38001 12.2699C8.28001 11.8999 8.18001 11.4199 7.97001 10.7199C7.76001 10.0199 7.63001 9.85994 7.50001 9.48994C7.37001 9.11994 7.20001 8.76994 7.00001 8.30994C6.81681 7.83999 6.66318 7.35906 6.54001 6.86994C6.45677 6.45774 6.55919 6.0298 6.82001 5.69994C7.17887 5.34976 7.69669 5.21649 8.18001 5.34994C8.55866 5.51553 8.87908 5.79067 9.10001 6.13994C9.39505 6.61161 9.63654 7.11472 9.82001 7.63994C10.1018 8.35957 10.3062 9.1071 10.43 9.86994L10.52 10.3199C10.52 10.3199 10.52 9.19994 10.52 9.15994C10.52 8.15994 10.46 7.33994 10.52 6.21994C10.52 6.08994 10.58 5.62994 10.6 5.49994C10.6259 5.0699 10.8821 4.68742 11.27 4.49994C11.7153 4.30015 12.2247 4.30015 12.67 4.49994C13.0686 4.67837 13.3347 5.06395 13.36 5.49994C13.36 5.60994 13.45 6.49994 13.45 6.60994C13.45 7.60994 13.45 8.24994 13.45 8.77994C13.45 9.00994 13.45 10.4099 13.45 10.2499C13.4736 8.9304 13.5872 7.614 13.79 6.30994C13.9085 5.90138 14.196 5.56295 14.58 5.37994C15.0549 5.19288 15.5945 5.28537 15.98 5.61994C16.2682 5.93623 16.4378 6.34263 16.46 6.76994C16.46 7.17994 16.46 7.66994 16.46 8.01994C16.46 8.88994 16.46 9.33994 16.46 10.1399C16.46 10.1399 16.46 10.4399 16.46 10.3199C16.55 10.0399 16.65 9.77994 16.73 9.57994C16.81 9.37994 16.97 8.96994 17.09 8.71994C17.2121 8.4816 17.3491 8.25115 17.5 8.02994C17.6568 7.77567 17.8919 7.57916 18.17 7.46994C18.4205 7.37312 18.6993 7.38109 18.9439 7.49206C19.1884 7.60304 19.378 7.80768 19.47 8.05994C19.5295 8.42419 19.5295 8.79569 19.47 9.15994C19.4033 9.71937 19.2862 10.2716 19.12 10.8099C18.99 11.2599 18.85 12.0399 18.78 12.4099C18.71 12.7799 18.55 13.7899 18.42 14.2299C18.2275 14.7548 17.9615 15.2498 17.63 15.6999C17.1448 16.2402 16.7437 16.8503 16.44 17.5099C16.3653 17.8378 16.3317 18.1737 16.34 18.5099C16.3384 18.8206 16.3788 19.1301 16.46 19.4299C16.0512 19.4735 15.6389 19.4735 15.23 19.4299C14.84 19.3699 14.36 18.5899 14.23 18.3499C14.1657 18.2211 14.034 18.1396 13.89 18.1396C13.746 18.1396 13.6143 18.2211 13.55 18.3499C13.32 18.7299 12.84 19.4199 12.5 19.4599C11.83 19.5399 10.45 19.4599 9.36001 19.4599C9.36001 19.4599 9.55001 18.4599 9.13001 18.0999C8.71001 17.7399 8.30001 17.3199 7.99001 17.0399L7.16001 16.1199C6.88001 15.7599 6.53001 15.0299 5.92001 14.1199C5.57001 13.6199 4.92001 13.0299 4.64001 12.5399C4.40493 12.1423 4.33664 11.6678 4.45001 11.2199C4.61981 10.6253 5.21067 10.2544 5.82001 10.3599C6.28351 10.3905 6.72193 10.5814 7.06001 10.8999C7.32772 11.1316 7.57837 11.3822 7.81001 11.6499C7.97001 11.8399 8.01001 11.9299 8.19001 12.1599C8.37001 12.3899 8.49001 12.6199 8.40001 12.2799" fill="white"/>
<path d="M8.38001 12.2699C8.28001 11.8999 8.18001 11.4199 7.97001 10.7199C7.76001 10.0199 7.63001 9.85994 7.50001 9.48994C7.37001 9.11994 7.20001 8.76994 7.00001 8.30994C6.81681 7.83999 6.66318 7.35906 6.54001 6.86994C6.45677 6.45774 6.55919 6.0298 6.82001 5.69994C7.17887 5.34976 7.69669 5.21649 8.18001 5.34994C8.55866 5.51553 8.87908 5.79067 9.10001 6.13994C9.39505 6.61161 9.63654 7.11472 9.82001 7.63994C10.1018 8.35957 10.3062 9.1071 10.43 9.86994L10.52 10.3199C10.52 10.3199 10.52 9.19994 10.52 9.15994C10.52 8.15994 10.46 7.33994 10.52 6.21994C10.52 6.08994 10.58 5.62994 10.6 5.49994C10.6259 5.0699 10.8821 4.68742 11.27 4.49994C11.7153 4.30015 12.2247 4.30015 12.67 4.49994C13.0686 4.67837 13.3347 5.06395 13.36 5.49994C13.36 5.60994 13.45 6.49994 13.45 6.60994C13.45 7.60994 13.45 8.24994 13.45 8.77994C13.45 9.00994 13.45 10.4099 13.45 10.2499C13.4736 8.9304 13.5872 7.614 13.79 6.30994C13.9085 5.90138 14.196 5.56295 14.58 5.37994C15.0549 5.19288 15.5945 5.28537 15.98 5.61994C16.2682 5.93623 16.4378 6.34263 16.46 6.76994C16.46 7.17994 16.46 7.66994 16.46 8.01994C16.46 8.88994 16.46 9.33994 16.46 10.1399C16.46 10.1399 16.46 10.4399 16.46 10.3199C16.55 10.0399 16.65 9.77994 16.73 9.57994C16.81 9.37994 16.97 8.96994 17.09 8.71994C17.2121 8.4816 17.3491 8.25115 17.5 8.02994C17.6568 7.77567 17.8919 7.57916 18.17 7.46994C18.4205 7.37312 18.6993 7.38109 18.9439 7.49206C19.1884 7.60304 19.378 7.80768 19.47 8.05994C19.5295 8.42419 19.5295 8.79569 19.47 9.15994C19.4033 9.71937 19.2862 10.2716 19.12 10.8099C18.99 11.2599 18.85 12.0399 18.78 12.4099C18.71 12.7799 18.55 13.7899 18.42 14.2299C18.2275 14.7548 17.9615 15.2498 17.63 15.6999C17.1448 16.2402 16.7437 16.8503 16.44 17.5099C16.3653 17.8378 16.3317 18.1737 16.34 18.5099C16.3384 18.8206 16.3788 19.1301 16.46 19.4299C16.0512 19.4735 15.6389 19.4735 15.23 19.4299C14.84 19.3699 14.36 18.5899 14.23 18.3499C14.1657 18.2211 14.034 18.1396 13.89 18.1396C13.746 18.1396 13.6143 18.2211 13.55 18.3499C13.32 18.7299 12.84 19.4199 12.5 19.4599C11.83 19.5399 10.45 19.4599 9.36001 19.4599C9.36001 19.4599 9.55001 18.4599 9.13001 18.0999C8.71001 17.7399 8.30001 17.3199 7.99001 17.0399L7.16001 16.1199C6.88001 15.7599 6.53001 15.0299 5.92001 14.1199C5.57001 13.6199 4.92001 13.0299 4.64001 12.5399C4.40493 12.1423 4.33664 11.6678 4.45001 11.2199C4.61981 10.6253 5.21067 10.2544 5.82001 10.3599C6.28351 10.3905 6.72193 10.5814 7.06001 10.8999C7.32772 11.1316 7.57837 11.3822 7.81001 11.6499C7.97001 11.8399 8.01001 11.9299 8.19001 12.1599C8.37001 12.3899 8.49001 12.6199 8.40001 12.2799" stroke="black" stroke-width="0.75" stroke-linecap="round" stroke-linejoin="round"/>
<path d="M15.75 16.4309V12.9791C15.75 12.7725 15.5821 12.605 15.375 12.605C15.1679 12.605 15 12.7725 15 12.9791V16.4309C15 16.6375 15.1679 16.805 15.375 16.805C15.5821 16.805 15.75 16.6375 15.75 16.4309Z" fill="black"/>
<path d="M13.76 16.4307L13.75 12.9771C13.7494 12.771 13.581 12.6044 13.3739 12.605C13.1668 12.6056 12.9994 12.7732 13 12.9793L13.01 16.4328C13.0106 16.639 13.179 16.8056 13.3861 16.805C13.5932 16.8044 13.7606 16.6368 13.76 16.4307Z" fill="black"/>
<path d="M11.0049 12.98L11.0249 16.4246C11.0261 16.6332 11.195 16.8013 11.4021 16.8001C11.6092 16.7989 11.7761 16.6288 11.7749 16.4202L11.7549 12.9756C11.7537 12.767 11.5848 12.5989 11.3777 12.6001C11.1706 12.6013 11.0037 12.7714 11.0049 12.98Z" fill="black"/>
</g>
<defs>
<filter id="filter0_d_3275_508" x="3.22148" y="3.9751" width="17.4682" height="17.6955" filterUnits="userSpaceOnUse" color-interpolation-filters="sRGB">
<feFlood flood-opacity="0" result="BackgroundImageFix"/>
<feColorMatrix in="SourceAlpha" type="matrix" values="0 0 0 0 0 0 0 0 0 0 0 0 0 0 0 0 0 0 127 0" result="hardAlpha"/>
<feOffset dy="1"/>
<feGaussianBlur stdDeviation="0.4"/>
<feColorMatrix type="matrix" values="0 0 0 0 0 0 0 0 0 0 0 0 0 0 0 0 0 0 0.5 0"/>
<feBlend mode="normal" in2="BackgroundImageFix" result="effect1_dropShadow_3275_508"/>
<feBlend mode="normal" in="SourceGraphic" in2="effect1_dropShadow_3275_508" result="shape"/>
</filter>
</defs>
</svg>
